<?xml version="1.0" encoding="utf-8"?>
<!-- Generator: Adobe Illustrator 16.0.0, SVG Export Plug-In . SVG Version: 6.00 Build 0)  -->
<!DOCTYPE svg PUBLIC "-//W3C//DTD SVG 1.1//EN" "http://www.w3.org/Graphics/SVG/1.1/DTD/svg11.dtd">
<svg version="1.1" id="Ebene_1" xmlns="http://www.w3.org/2000/svg" xmlns:xlink="http://www.w3.org/1999/xlink" x="0px" y="0px"
	 width="64px" height="64px" viewBox="0 0 64 64" enable-background="new 0 0 64 64" xml:space="preserve">
<g>
	<g>
		<linearGradient id="SVGID_1_" gradientUnits="userSpaceOnUse" x1="31.8667" y1="11.8027" x2="31.8667" y2="52.1987">
			<stop  offset="0" style="stop-color:#469B41"/>
			<stop  offset="1" style="stop-color:#288342"/>
		</linearGradient>
		<polygon fill="url(#SVGID_1_)" points="40.116,52.198 0.513,52.198 0.513,11.803 40.116,11.803 63.221,31.124 		"/>
		<path fill="#22612B" d="M40.314,52.711H0V11.289h40.303L64,31.107L40.314,52.711z M1.026,51.686h38.892L62.44,31.141L39.93,12.315
			H1.026V51.686z"/>
	</g>
	<g>
		<linearGradient id="SVGID_2_" gradientUnits="userSpaceOnUse" x1="20.2007" y1="24.8037" x2="12.3737" y2="49.4662">
			<stop  offset="0" style="stop-color:#FFFFFF"/>
			<stop  offset="1" style="stop-color:#ECECEC"/>
		</linearGradient>
		<polygon fill-rule="evenodd" clip-rule="evenodd" fill="url(#SVGID_2_)" points="26.052,18.183 22.102,44.065 15.804,44.065 
			10.056,31.523 14.627,27.482 18.219,36.712 18.306,37.229 18.391,36.928 21.48,23.437 		"/>
		<path fill="#22612B" d="M22.433,44.45h-6.875L9.586,31.425l5.199-4.597l3.478,8.938l2.927-12.581l5.442-6.256L22.433,44.45z
			 M16.051,43.682h5.72l3.7-24.246l-3.637,4.182l-3.158,13.717l-0.75-0.04l-0.088-0.518l-3.37-8.641l-3.944,3.487L16.051,43.682z"/>
	</g>
</g>
</svg>
