<?xml version="1.0" encoding="utf-8"?>
<!-- Generator: Adobe Illustrator 16.0.0, SVG Export Plug-In . SVG Version: 6.00 Build 0)  -->
<!DOCTYPE svg PUBLIC "-//W3C//DTD SVG 1.1//EN" "http://www.w3.org/Graphics/SVG/1.1/DTD/svg11.dtd">
<svg version="1.1" id="Ebene_1" xmlns="http://www.w3.org/2000/svg" xmlns:xlink="http://www.w3.org/1999/xlink" x="0px" y="0px"
	 width="64px" height="64px" viewBox="0 0 64 64" enable-background="new 0 0 64 64" xml:space="preserve">
<g>
	<g>
		<linearGradient id="SVGID_1_" gradientUnits="userSpaceOnUse" x1="31.875" y1="11.7773" x2="31.875" y2="52.2241">
			<stop  offset="0" style="stop-color:#E20613"/>
			<stop  offset="1" style="stop-color:#BD1622"/>
		</linearGradient>
		<polygon fill="url(#SVGID_1_)" points="40.135,52.224 0.48,52.224 0.48,11.777 40.135,11.777 63.27,31.123 		"/>
		<path fill="#8A1002" d="M40.32,52.704H0V11.296h40.309L64,31.107L40.32,52.704z M0.964,51.74h38.984l22.588-20.602L39.96,12.258
			H0.964V51.74z"/>
	</g>
	<g>
		<g>
			<path fill="#FFFFFF" d="M17.939,41.929c0-0.966,0.26-1.698,0.78-2.193c0.521-0.497,1.279-0.745,2.274-0.745
				c0.963,0,1.705,0.254,2.229,0.761c0.528,0.509,0.794,1.234,0.794,2.178c0,0.909-0.269,1.629-0.798,2.154
				c-0.533,0.525-1.274,0.784-2.225,0.784c-0.971,0-1.723-0.257-2.257-0.77C18.205,43.585,17.939,42.861,17.939,41.929z
				 M23.129,36.02h-4.235L18.01,19.134h6.007L23.129,36.02z"/>
			<path fill="#8A1002" d="M20.994,45.229c-1.062,0-1.905-0.295-2.507-0.871c-0.603-0.581-0.908-1.398-0.908-2.43
				c0-1.067,0.301-1.893,0.893-2.454c0.588-0.559,1.435-0.845,2.522-0.845c1.053,0,1.889,0.291,2.479,0.861
				c0.601,0.578,0.903,1.398,0.903,2.438c0,1.006-0.304,1.815-0.906,2.411C22.872,44.929,22.038,45.229,20.994,45.229z
				 M20.994,39.353c-0.895,0-1.576,0.217-2.025,0.645c-0.442,0.422-0.669,1.07-0.669,1.932c0,0.84,0.227,1.463,0.688,1.908
				c0.463,0.444,1.137,0.669,2.007,0.669c0.859,0,1.505-0.222,1.972-0.681c0.457-0.454,0.69-1.09,0.69-1.896
				c0-0.847-0.224-1.475-0.685-1.918C22.521,39.574,21.854,39.353,20.994,39.353z M23.47,36.38h-4.919l-0.922-17.606h6.769
				L23.47,36.38z M19.234,35.658h3.552l0.85-16.162h-5.245L19.234,35.658z"/>
		</g>
	</g>
</g>
</svg>
