<?xml version="1.0" encoding="utf-8"?>
<!-- Generator: Adobe Illustrator 15.1.0, SVG Export Plug-In . SVG Version: 6.00 Build 0)  -->
<!DOCTYPE svg PUBLIC "-//W3C//DTD SVG 1.1//EN" "http://www.w3.org/Graphics/SVG/1.1/DTD/svg11.dtd">
<svg version="1.1" id="Ebene_1" xmlns="http://www.w3.org/2000/svg" xmlns:xlink="http://www.w3.org/1999/xlink" x="0px" y="0px"
	 width="1920px" height="1080px" viewBox="0 0 1920 1080" enable-background="new 0 0 1920 1080" xml:space="preserve">
<linearGradient id="SVGID_1_" gradientUnits="userSpaceOnUse" x1="-264.6721" y1="774.5457" x2="-359.8203" y2="-313.0003" gradientTransform="matrix(1 0 0 1 1279.7305 385.9355)">
	<stop  offset="0" style="stop-color:#FFFFFF"/>
	<stop  offset="1" style="stop-color:#DADAD9"/>
</linearGradient>
<rect x="0.009" y="153.417" fill="url(#SVGID_1_)" width="1934.95" height="926.583"/>
<linearGradient id="SVGID_2_" gradientUnits="userSpaceOnUse" x1="-288.6121" y1="82.1272" x2="-337.6941" y2="-478.8822" gradientTransform="matrix(1 0 0 1 1279.7305 385.9355)">
	<stop  offset="0" style="stop-color:#FFFFFF"/>
	<stop  offset="1" style="stop-color:#DADAD9"/>
</linearGradient>
<path fill="url(#SVGID_2_)" d="M-1.188,378.858c237.332,53.671,527.357,85.222,840.502,85.222
	c436.397,0,827.896-61.271,1094.446-158.297V-10.425H-1.188V378.858z"/>
<g>
	
		<polygon fill-rule="evenodd" clip-rule="evenodd" fill="#CD101F" stroke="#A00D59" stroke-width="0.5" stroke-miterlimit="10" points="
		172.418,146.135 149.759,262.86 121.046,262.86 94.841,205.856 115.681,187.481 132.057,229.438 132.449,231.796 132.843,230.421 
		146.926,169.107 	"/>
	<path fill-rule="evenodd" clip-rule="evenodd" fill="#CD101F" stroke="#A00D59" stroke-width="0.5" stroke-miterlimit="10" d="
		M206.941,138.175l-20.834,20.514v-20.833l20.834-18.375V138.175z M206.941,262.86h-20.834v-89.705h20.834V262.86z"/>
	<path fill="#CD101F" stroke="#A00D59" stroke-width="0.5" stroke-miterlimit="10" d="M254.049,266.908
		c-9.93,0-17.344-3.136-22.308-9.007c-4.967-5.872-7.592-14.643-7.592-26.381v-58.365h20.834l-0.056,58.931
		c0,4.497,0.973,7.867,2.918,10.113c1.947,2.25,4.583,3.876,8.475,3.876h21.29c3.893,0,8.499-1.625,10.443-3.876
		c1.947-2.246,2.88-5.663,2.88-10.16v-58.885h20.833v58.465c0,11.742-2.746,20.41-7.71,26.281
		c-4.965,5.871-12.435,9.007-22.364,9.007H254.049z"/>
	<path fill-rule="evenodd" clip-rule="evenodd" fill="#CD101F" stroke="#A00D59" stroke-width="0.5" stroke-miterlimit="10" d="
		M401.718,244.941c4.735-1.273,8.674-3.222,11.778-5.85c5.871-4.963,9.008-12.378,9.008-22.308v-12.945
		c0-9.93-3.137-17.398-9.008-22.365c-5.872-4.963-14.538-8.319-26.281-8.319h-6.379H328.75v93.753h20.835v-72.311h38.05
		c4.497,0,7.913,0.933,10.16,2.878c2.25,1.944,3.876,6.553,3.876,10.443v6.593c0,3.89-1.626,6.528-3.876,8.473
		c-2.247,1.945-5.616,2.917-10.113,2.917l-23.424-0.053l0.58,11.452l31.14,29.607h26.96L401.718,244.941z"/>
</g>
<g>
	<path fill="#1A171B" d="M121.84,305.122V281.47h1.65v23.652H121.84z"/>
	<path fill="#1A171B" d="M142.875,305.122v-11.406c0-1.769-0.373-3.056-1.118-3.857c-0.743-0.804-1.899-1.207-3.461-1.207
		c-2.103,0-3.643,0.532-4.619,1.594c-0.976,1.062-1.464,2.785-1.464,5.169v9.707h-1.603v-17.585h1.36l0.307,2.41h0.097
		c1.143-1.834,3.177-2.75,6.099-2.75c3.991,0,5.987,2.143,5.987,6.424v11.502H142.875z"/>
	<path fill="#1A171B" d="M157.519,288.927h-4.143v16.195h-1.601v-16.195h-3.268v-0.938l3.268-0.598v-1.36
		c0-2.157,0.396-3.74,1.189-4.749c0.792-1.008,2.089-1.512,3.89-1.512c0.971,0,1.941,0.146,2.912,0.436l-0.373,1.393
		c-0.861-0.269-1.719-0.405-2.571-0.405c-1.251,0-2.139,0.369-2.662,1.108c-0.524,0.739-0.786,1.938-0.786,3.6v1.635h4.143V288.927z
		"/>
	<path fill="#1A171B" d="M176.29,296.304c0,2.869-0.694,5.11-2.086,6.724c-1.391,1.611-3.311,2.419-5.758,2.419
		c-1.543,0-2.901-0.374-4.079-1.118c-1.175-0.743-2.076-1.811-2.7-3.203c-0.626-1.391-0.939-2.998-0.939-4.821
		c0-2.868,0.695-5.104,2.087-6.706c1.391-1.601,3.3-2.403,5.728-2.403c2.415,0,4.31,0.813,5.686,2.435
		C175.603,291.255,176.29,293.48,176.29,296.304z M162.409,296.304c0,2.417,0.531,4.301,1.595,5.656
		c1.062,1.353,2.564,2.029,4.505,2.029s3.441-0.676,4.505-2.029c1.063-1.355,1.594-3.239,1.594-5.656
		c0-2.426-0.536-4.309-1.609-5.645c-1.073-1.339-2.581-2.007-4.522-2.007c-1.942,0-3.438,0.667-4.489,1.998
		C162.936,291.984,162.409,293.868,162.409,296.304z"/>
	<path fill="#1A171B" d="M188.912,287.196c0.745,0,1.543,0.075,2.396,0.228l-0.307,1.536c-0.734-0.183-1.495-0.274-2.283-0.274
		c-1.499,0-2.727,0.635-3.687,1.909c-0.961,1.272-1.441,2.88-1.441,4.821v9.707h-1.601v-17.585h1.358l0.162,3.17h0.113
		c0.723-1.293,1.495-2.203,2.313-2.726C186.755,287.458,187.748,287.196,188.912,287.196z"/>
	<path fill="#1A171B" d="M217.682,305.122v-11.535c0-1.715-0.335-2.966-1.003-3.753c-0.669-0.788-1.694-1.181-3.074-1.181
		c-1.801,0-3.135,0.496-3.996,1.488c-0.863,0.992-1.295,2.552-1.295,4.676v10.306h-1.633v-12.021c0-2.966-1.36-4.449-4.077-4.449
		c-1.844,0-3.188,0.537-4.028,1.61c-0.842,1.073-1.264,2.79-1.264,5.153v9.707h-1.6v-17.585h1.326l0.339,2.41h0.099
		c0.484-0.874,1.175-1.55,2.071-2.029c0.894-0.481,1.88-0.721,2.96-0.721c2.771,0,4.551,1.041,5.338,3.123h0.065
		c0.572-1.002,1.34-1.773,2.306-2.313c0.965-0.538,2.062-0.809,3.291-0.809c1.92,0,3.361,0.513,4.321,1.538
		c0.96,1.024,1.439,2.653,1.439,4.886v11.502H217.682z"/>
	<path fill="#1A171B" d="M236.468,305.122l-0.405-2.782h-0.129c-0.883,1.132-1.793,1.933-2.726,2.401
		c-0.933,0.47-2.035,0.705-3.309,0.705c-1.724,0-3.068-0.443-4.028-1.328s-1.439-2.108-1.439-3.671c0-1.716,0.714-3.047,2.145-3.997
		c1.428-0.949,3.498-1.452,6.203-1.505l3.351-0.097v-1.165c0-1.673-0.341-2.934-1.02-3.786c-0.68-0.853-1.775-1.278-3.286-1.278
		c-1.627,0-3.316,0.452-5.064,1.358l-0.597-1.391c1.931-0.907,3.838-1.361,5.726-1.361c1.931,0,3.374,0.503,4.328,1.506
		c0.955,1.002,1.432,2.567,1.432,4.692v11.696H236.468z M229.995,303.99c1.877,0,3.358-0.536,4.441-1.609
		c1.084-1.073,1.626-2.564,1.626-4.474v-1.731l-3.074,0.129c-2.469,0.12-4.229,0.506-5.281,1.157
		c-1.052,0.653-1.577,1.669-1.577,3.051c0,1.1,0.335,1.954,1.01,2.564C227.815,303.685,228.766,303.99,229.995,303.99z"/>
	<path fill="#1A171B" d="M248.815,304.022c1.014,0,1.898-0.086,2.652-0.258v1.293c-0.775,0.258-1.67,0.39-2.685,0.39
		c-1.554,0-2.701-0.417-3.438-1.248c-0.739-0.829-1.108-2.135-1.108-3.915v-11.357h-2.604v-0.938l2.604-0.729l0.809-3.98h0.826
		v4.256h5.161v1.391h-5.161v11.131c0,1.35,0.237,2.347,0.71,2.993C247.056,303.699,247.801,304.022,248.815,304.022z"/>
	<path fill="#1A171B" d="M255.874,282.651c0-1.035,0.339-1.554,1.019-1.554c0.334,0,0.596,0.134,0.785,0.405
		c0.188,0.269,0.283,0.652,0.283,1.148c0,0.485-0.095,0.869-0.283,1.149c-0.189,0.28-0.451,0.42-0.785,0.42
		C256.213,284.219,255.874,283.697,255.874,282.651z M257.702,305.122H256.1v-17.585h1.602V305.122z"/>
	<path fill="#1A171B" d="M278.962,296.304c0,2.869-0.694,5.11-2.086,6.724c-1.391,1.611-3.311,2.419-5.759,2.419
		c-1.542,0-2.901-0.374-4.078-1.118c-1.176-0.743-2.077-1.811-2.701-3.203c-0.626-1.391-0.938-2.998-0.938-4.821
		c0-2.868,0.695-5.104,2.087-6.706c1.391-1.601,3.3-2.403,5.728-2.403c2.415,0,4.31,0.813,5.686,2.435
		C278.275,291.255,278.962,293.48,278.962,296.304z M265.081,296.304c0,2.417,0.531,4.301,1.595,5.656
		c1.062,1.353,2.564,2.029,4.506,2.029c1.942,0,3.442-0.676,4.506-2.029c1.062-1.355,1.593-3.239,1.593-5.656
		c0-2.426-0.536-4.309-1.61-5.645c-1.072-1.339-2.58-2.007-4.521-2.007c-1.942,0-3.438,0.667-4.489,1.998
		C265.609,291.984,265.081,293.868,265.081,296.304z"/>
	<path fill="#1A171B" d="M296.924,305.122v-11.406c0-1.769-0.373-3.056-1.116-3.857c-0.745-0.804-1.899-1.207-3.463-1.207
		c-2.103,0-3.643,0.532-4.618,1.594c-0.977,1.062-1.464,2.785-1.464,5.169v9.707h-1.601v-17.585h1.358l0.307,2.41h0.097
		c1.143-1.834,3.176-2.75,6.099-2.75c3.991,0,5.986,2.143,5.986,6.424v11.502H296.924z"/>
	<path fill="#1A171B" d="M315.936,300.545c0,1.574-0.598,2.785-1.796,3.631c-1.197,0.847-2.894,1.271-5.096,1.271
		c-2.351,0-4.217-0.363-5.597-1.084v-1.732c1.77,0.885,3.634,1.327,5.597,1.327c1.737,0,3.056-0.289,3.957-0.865
		c0.9-0.578,1.351-1.346,1.351-2.306c0-0.884-0.359-1.629-1.077-2.232c-0.718-0.604-1.895-1.197-3.535-1.78
		c-1.758-0.638-2.993-1.185-3.706-1.642c-0.71-0.459-1.247-0.976-1.61-1.554c-0.36-0.577-0.542-1.279-0.542-2.11
		c0-1.317,0.553-2.358,1.658-3.123c1.105-0.766,2.652-1.15,4.637-1.15c1.897,0,3.698,0.357,5.403,1.068l-0.6,1.457
		c-1.724-0.712-3.326-1.068-4.803-1.068c-1.436,0-2.574,0.237-3.415,0.713c-0.841,0.474-1.261,1.132-1.261,1.974
		c0,0.915,0.327,1.649,0.978,2.2c0.653,0.549,1.929,1.165,3.828,1.845c1.584,0.57,2.738,1.085,3.461,1.545
		c0.723,0.457,1.265,0.978,1.625,1.561C315.757,299.071,315.936,299.757,315.936,300.545z"/>
	<path fill="#1A171B" d="M332.199,300.545c0,1.574-0.6,2.785-1.797,3.631c-1.196,0.847-2.896,1.271-5.096,1.271
		c-2.351,0-4.217-0.363-5.597-1.084v-1.732c1.767,0.885,3.633,1.327,5.597,1.327c1.737,0,3.056-0.289,3.957-0.865
		c0.898-0.578,1.349-1.346,1.349-2.306c0-0.884-0.357-1.629-1.075-2.232c-0.717-0.604-1.896-1.197-3.535-1.78
		c-1.758-0.638-2.993-1.185-3.705-1.642c-0.712-0.459-1.249-0.976-1.61-1.554c-0.36-0.577-0.542-1.279-0.542-2.11
		c0-1.317,0.552-2.358,1.658-3.123c1.105-0.766,2.65-1.15,4.635-1.15c1.898,0,3.7,0.357,5.405,1.068l-0.599,1.457
		c-1.726-0.712-3.327-1.068-4.806-1.068c-1.434,0-2.572,0.237-3.413,0.713c-0.841,0.474-1.261,1.132-1.261,1.974
		c0,0.915,0.325,1.649,0.978,2.2c0.653,0.549,1.928,1.165,3.826,1.845c1.586,0.57,2.741,1.085,3.463,1.545
		c0.723,0.457,1.265,0.978,1.625,1.561C332.018,299.071,332.199,299.757,332.199,300.545z"/>
	<path fill="#1A171B" d="M334.614,287.537h1.651l3.721,9.869c1.133,3.031,1.85,5.075,2.152,6.132h0.097
		c0.454-1.393,1.191-3.469,2.216-6.229l3.722-9.772h1.651l-7.879,20.433c-0.637,1.662-1.171,2.783-1.603,3.365
		c-0.431,0.583-0.935,1.019-1.513,1.312c-0.576,0.291-1.275,0.436-2.094,0.436c-0.616,0-1.301-0.113-2.057-0.339v-1.391
		c0.626,0.172,1.301,0.258,2.024,0.258c0.549,0,1.033-0.129,1.455-0.389c0.42-0.259,0.8-0.66,1.141-1.204
		c0.339-0.545,0.732-1.409,1.181-2.589c0.447-1.181,0.736-1.949,0.865-2.306L334.614,287.537z"/>
	<path fill="#1A171B" d="M364.499,300.545c0,1.574-0.599,2.785-1.796,3.631c-1.197,0.847-2.896,1.271-5.096,1.271
		c-2.351,0-4.217-0.363-5.599-1.084v-1.732c1.77,0.885,3.636,1.327,5.599,1.327c1.737,0,3.054-0.289,3.955-0.865
		c0.901-0.578,1.351-1.346,1.351-2.306c0-0.884-0.359-1.629-1.075-2.232c-0.718-0.604-1.896-1.197-3.535-1.78
		c-1.759-0.638-2.993-1.185-3.705-1.642c-0.712-0.459-1.249-0.976-1.61-1.554c-0.362-0.577-0.542-1.279-0.542-2.11
		c0-1.317,0.552-2.358,1.658-3.123c1.105-0.766,2.65-1.15,4.635-1.15c1.898,0,3.7,0.357,5.403,1.068l-0.597,1.457
		c-1.727-0.712-3.329-1.068-4.806-1.068c-1.434,0-2.573,0.237-3.413,0.713c-0.842,0.474-1.264,1.132-1.264,1.974
		c0,0.915,0.327,1.649,0.98,2.2c0.651,0.549,1.927,1.165,3.826,1.845c1.586,0.57,2.74,1.085,3.461,1.545
		c0.723,0.457,1.265,0.978,1.627,1.561C364.318,299.071,364.499,299.757,364.499,300.545z"/>
	<path fill="#1A171B" d="M374.5,304.022c1.014,0,1.898-0.086,2.654-0.258v1.293c-0.777,0.258-1.673,0.39-2.687,0.39
		c-1.552,0-2.699-0.417-3.438-1.248c-0.739-0.829-1.107-2.135-1.107-3.915v-11.357h-2.605v-0.938l2.605-0.729l0.81-3.98h0.824v4.256
		h5.161v1.391h-5.161v11.131c0,1.35,0.238,2.347,0.712,2.993C372.741,303.699,373.486,304.022,374.5,304.022z"/>
	<path fill="#1A171B" d="M388.885,305.447c-2.557,0-4.549-0.788-5.977-2.363c-1.431-1.574-2.144-3.779-2.144-6.616
		c0-2.804,0.69-5.051,2.07-6.739c1.38-1.687,3.241-2.532,5.582-2.532c2.071,0,3.704,0.723,4.903,2.169
		c1.197,1.444,1.794,3.408,1.794,5.888v1.295h-12.667c0.022,2.415,0.585,4.26,1.69,5.532c1.105,1.272,2.688,1.909,4.748,1.909
		c1.003,0,1.886-0.07,2.645-0.21c0.761-0.14,1.723-0.441,2.889-0.906v1.455c-0.992,0.432-1.909,0.727-2.75,0.883
		C390.827,305.368,389.9,305.447,388.885,305.447z M388.417,288.621c-1.693,0-3.053,0.558-4.077,1.674
		c-1.026,1.116-1.624,2.725-1.796,4.829h10.872c0-2.039-0.443-3.632-1.328-4.78C391.204,289.195,389.98,288.621,388.417,288.621z"/>
	<path fill="#1A171B" d="M422.766,305.122v-11.535c0-1.715-0.334-2.966-1.003-3.753c-0.667-0.788-1.692-1.181-3.074-1.181
		c-1.802,0-3.133,0.496-3.996,1.488c-0.863,0.992-1.294,2.552-1.294,4.676v10.306h-1.635v-12.021c0-2.966-1.358-4.449-4.077-4.449
		c-1.843,0-3.187,0.537-4.028,1.61c-0.84,1.073-1.261,2.79-1.261,5.153v9.707h-1.603v-17.585h1.328l0.339,2.41h0.097
		c0.486-0.874,1.175-1.55,2.071-2.029c0.895-0.481,1.882-0.721,2.96-0.721c2.772,0,4.553,1.041,5.341,3.123h0.064
		c0.571-1.002,1.341-1.773,2.306-2.313c0.963-0.538,2.062-0.809,3.291-0.809c1.92,0,3.36,0.513,4.321,1.538
		c0.958,1.024,1.439,2.653,1.439,4.886v11.502H422.766z"/>
</g>
<polygon fill-rule="evenodd" clip-rule="evenodd" fill="#CD101F" points="52.45,68.896 -0.689,121.217 -0.689,68.081 52.45,21.216 
	"/>
<rect x="52.213" y="21.216" fill-rule="evenodd" clip-rule="evenodd" fill="#CD101F" width="131.223" height="47.79"/>
<g>
	<path fill="#FFFFFF" d="M64.372,34.366c0.016,0.943,0.61,1.331,1.315,1.331c0.499,0,0.808-0.087,1.062-0.198l0.126,0.5
		c-0.245,0.111-0.673,0.246-1.284,0.246c-1.181,0-1.886-0.785-1.886-1.942c0-1.157,0.682-2.06,1.799-2.06
		c1.26,0,1.585,1.094,1.585,1.799c0,0.143-0.008,0.246-0.024,0.325H64.372z M66.417,33.866c0.007-0.436-0.183-1.125-0.967-1.125
		c-0.713,0-1.014,0.642-1.07,1.125H66.417z"/>
	<path fill="#FFFFFF" d="M67.956,33.359c0-0.404-0.008-0.721-0.032-1.038h0.618l0.04,0.634h0.016
		c0.19-0.357,0.634-0.713,1.268-0.713c0.531,0,1.355,0.317,1.355,1.632v2.283h-0.697v-2.211c0-0.618-0.23-1.133-0.888-1.133
		c-0.452,0-0.808,0.325-0.935,0.713c-0.032,0.087-0.047,0.206-0.047,0.325v2.307h-0.698V33.359z"/>
	<path fill="#FFFFFF" d="M73.166,31.402v0.919h0.999v0.531h-0.999v2.068c0,0.476,0.135,0.745,0.523,0.745
		c0.19,0,0.301-0.016,0.404-0.047l0.032,0.531c-0.135,0.048-0.349,0.095-0.618,0.095c-0.325,0-0.586-0.111-0.753-0.293
		c-0.19-0.214-0.269-0.555-0.269-1.006v-2.092H71.89v-0.531h0.594v-0.713L73.166,31.402z"/>
	<path fill="#FFFFFF" d="M75.299,32.321l0.515,1.95c0.103,0.428,0.206,0.824,0.277,1.22h0.024c0.087-0.388,0.214-0.8,0.341-1.212
		l0.626-1.958h0.586l0.594,1.918c0.143,0.459,0.254,0.864,0.341,1.252h0.024c0.063-0.388,0.167-0.792,0.293-1.244l0.547-1.926h0.689
		l-1.236,3.836h-0.634L77.7,34.326c-0.135-0.428-0.246-0.808-0.341-1.26h-0.016c-0.095,0.459-0.214,0.855-0.349,1.268l-0.618,1.823
		h-0.634l-1.157-3.836H75.299z"/>
	<path fill="#FFFFFF" d="M81.634,31.243c0,0.238-0.167,0.428-0.444,0.428c-0.253,0-0.42-0.19-0.42-0.428
		c0-0.237,0.174-0.436,0.436-0.436C81.46,30.807,81.634,30.998,81.634,31.243z M80.857,36.157v-3.836h0.698v3.836H80.857z"/>
	<path fill="#FFFFFF" d="M85.447,36.022c-0.183,0.087-0.586,0.222-1.102,0.222c-1.157,0-1.91-0.785-1.91-1.958
		c0-1.181,0.809-2.044,2.061-2.044c0.412,0,0.776,0.103,0.966,0.206l-0.158,0.531c-0.167-0.087-0.428-0.182-0.808-0.182
		c-0.88,0-1.355,0.658-1.355,1.45c0,0.888,0.57,1.435,1.332,1.435c0.396,0,0.658-0.095,0.856-0.183L85.447,36.022z"/>
	<path fill="#FFFFFF" d="M86.955,34.08h0.016c0.095-0.135,0.222-0.301,0.333-0.436l1.133-1.324h0.832l-1.474,1.577l1.688,2.259
		h-0.856l-1.315-1.839l-0.356,0.396v1.442h-0.69V30.53h0.69V34.08z"/>
	<path fill="#FFFFFF" d="M90.372,34.366c0.016,0.943,0.61,1.331,1.315,1.331c0.499,0,0.808-0.087,1.062-0.198l0.126,0.5
		c-0.245,0.111-0.673,0.246-1.284,0.246c-1.181,0-1.886-0.785-1.886-1.942c0-1.157,0.682-2.06,1.799-2.06
		c1.26,0,1.585,1.094,1.585,1.799c0,0.143-0.008,0.246-0.024,0.325H90.372z M92.417,33.866c0.007-0.436-0.183-1.125-0.967-1.125
		c-0.713,0-1.014,0.642-1.07,1.125H92.417z"/>
	<path fill="#FFFFFF" d="M93.956,30.53h0.698v5.627h-0.698V30.53z"/>
	<path fill="#FFFFFF" d="M96.668,31.402v0.919h0.999v0.531h-0.999v2.068c0,0.476,0.135,0.745,0.523,0.745
		c0.19,0,0.301-0.016,0.404-0.047l0.032,0.531c-0.135,0.048-0.349,0.095-0.618,0.095c-0.325,0-0.586-0.111-0.753-0.293
		c-0.19-0.214-0.27-0.555-0.27-1.006v-2.092h-0.594v-0.531h0.594v-0.713L96.668,31.402z"/>
	<path fill="#FFFFFF" d="M100.403,32.321l0.753,2.147c0.126,0.357,0.229,0.674,0.309,0.991h0.023
		c0.087-0.317,0.198-0.634,0.325-0.991l0.745-2.147h0.729l-1.505,3.836h-0.666l-1.458-3.836H100.403z"/>
	<path fill="#FFFFFF" d="M107.339,34.207c0,1.418-0.991,2.037-1.91,2.037c-1.03,0-1.839-0.761-1.839-1.973
		c0-1.276,0.848-2.029,1.902-2.029C106.594,32.242,107.339,33.042,107.339,34.207z M104.304,34.247c0,0.84,0.476,1.474,1.157,1.474
		c0.666,0,1.166-0.626,1.166-1.49c0-0.65-0.325-1.466-1.149-1.466C104.66,32.765,104.304,33.526,104.304,34.247z"/>
	<path fill="#FFFFFF" d="M108.221,33.359c0-0.404-0.008-0.721-0.031-1.038h0.618l0.04,0.634h0.016
		c0.19-0.357,0.634-0.713,1.268-0.713c0.531,0,1.355,0.317,1.355,1.632v2.283h-0.697v-2.211c0-0.618-0.23-1.133-0.888-1.133
		c-0.452,0-0.808,0.325-0.935,0.713c-0.032,0.087-0.047,0.206-0.047,0.325v2.307h-0.698V33.359z"/>
</g>
<path fill="#FFFFFF" d="M294.641,230.173c-0.044-0.086-0.095-0.168-0.095-0.168L294.641,230.173z"/>
<g>
	<path fill="#FFFFFF" d="M66.618,43.688h2.912c0.647,0,1.287,0,1.941,1.066c0.648-1.066,1.294-1.066,1.941-1.066h2.912
		c1.618,0,2.912,1.294,2.912,3.64v8.008h-2.588v-7.77c0-0.712-0.578-1.29-1.29-1.29h-1.304c-0.712,0-1.289,0.578-1.289,1.29v7.77
		h-2.588v-7.77c0-0.712-0.578-1.29-1.29-1.29h-1.304c-0.712,0-1.29,0.578-1.29,1.29v7.77h-2.588v-8.008
		C63.706,44.982,65.001,43.688,66.618,43.688z"/>
	<path fill="#FFFFFF" d="M87.198,43.711l-4.079-0.022v2.588l3.91,0.036c0.867,0,1.268,0.342,1.268,1.259v0.113v0.45l-2.974,0.001
		c-2.367,0-3.551,1.158-3.551,3.476v0.075c0,2.434,1.133,3.651,3.401,3.651h5.712v-7.765C90.884,45.02,89.799,43.794,87.198,43.711z
		 M88.296,52.748h-3.002c-0.55,0-0.819-0.354-0.819-0.988s0.275-0.967,0.825-1l2.996-0.004V52.748z"/>
	<path fill="#FFFFFF" d="M106.415,55.336v-2.588h3.914c0.817,0,1.246-0.352,1.263-1.018c-0.05-0.6-0.541-0.924-1.274-0.924h-1.661
		c-2.351,0-3.535-1.227-3.535-3.644c0.033-2.351,1.018-3.407,3.318-3.474h4.446v2.588h-4.121c-0.567,0-1.055,0.24-1.055,0.874
		c0,0.684,0.382,1.068,1.115,1.068h1.613c2.468,0,3.743,1.085,3.743,3.319v0.133c-0.034,2.45-1.316,3.666-3.733,3.666H106.415z"/>
	<path fill="#FFFFFF" d="M122.163,43.688h-2.807v-3.883h-2.588v15.53h5.276c2.484,0,3.784-1.254,3.784-3.788v-0.086V47.67
		C125.827,44.986,124.598,43.688,122.163,43.688z M123.239,51.617c0,0.734-0.34,1.131-1.041,1.131h-2.842v-6.472h2.599
		c0.85,0.034,1.284,0.463,1.284,1.445V51.617z"/>
	<path fill="#FFFFFF" d="M134.886,46.276h-2.284c-1.033,0-1.599,0.486-1.599,1.637v7.423h-2.588V43.688h2.588v0.647
		c0.5-0.467,1.306-0.647,2.19-0.647h1.693V46.276z"/>
	<path fill="#FFFFFF" d="M97.187,55.336c-1.233,0-2.155-0.39-2.771-1.119s-0.943-1.819-0.943-3.277v-7.251h2.588l-0.007,7.321
		c0,0.559,0.121,0.978,0.362,1.256c0.242,0.279,0.57,0.482,1.053,0.482h0.819c0.483,0,1.055-0.203,1.297-0.482
		c0.242-0.279,0.358-0.704,0.358-1.262v-7.315h2.588v7.264c0,1.458-0.341,2.535-0.958,3.265c-0.616,0.729-1.544,1.119-2.778,1.119
		H97.187z"/>
	<path fill="#FFFFFF" d="M153.182,43.688c1.234,0,2.128,0.344,2.745,1.073c0.616,0.729,0.96,1.831,0.96,3.289v7.285h-2.588v-7.365
		c0-0.559-0.118-0.979-0.359-1.258c-0.242-0.279-0.597-0.437-1.081-0.437h-0.928c-0.483,0-0.938,0.157-1.18,0.437
		c-0.242,0.279-0.334,0.694-0.334,1.252v7.371h-2.589v-7.293c0-1.459,0.318-2.551,0.935-3.281c0.617-0.729,1.553-1.073,2.787-1.073
		H153.182z"/>
	<path fill="#FFFFFF" d="M165.94,39.805v3.883h-2.808c-2.434,0-3.664,1.297-3.664,3.981v3.792v0.086
		c0,2.534,1.299,3.788,3.783,3.788h5.276v-15.53H165.94z M165.94,52.748h-2.842c-0.701,0-1.041-0.397-1.041-1.131v-3.896
		c0-0.982,0.434-1.412,1.283-1.445h2.6V52.748z"/>
	<path fill="#FFFFFF" d="M141.552,43.711l-4.079-0.022v2.588l3.91,0.036c0.867,0,1.267,0.342,1.267,1.259v0.113v0.45l-2.973,0.001
		c-2.367,0-3.551,1.158-3.551,3.476v0.075c0,2.434,1.134,3.651,3.401,3.651h5.711v-7.765
		C145.238,45.02,144.153,43.794,141.552,43.711z M142.65,52.748h-3.001c-0.55,0-0.819-0.354-0.819-0.988s0.275-0.967,0.825-1
		l2.995-0.004V52.748z"/>
</g>
</svg>
